<?xml version="1.0" standalone="no"?>
<!DOCTYPE svg PUBLIC "-//W3C//DTD SVG 20010904//EN"
 "http://www.w3.org/TR/2001/REC-SVG-20010904/DTD/svg10.dtd">
<svg version="1.0" xmlns="http://www.w3.org/2000/svg"
 width="308.000000pt" height="308.000000pt" viewBox="0 0 308.000000 308.000000"
 preserveAspectRatio="xMidYMid meet">
<metadata>
Created by potrace 1.14, written by Peter Selinger 2001-2017
</metadata>
<g transform="translate(0.000000,308.000000) scale(0.100000,-0.100000)"
fill="#000000" stroke="none">
<path d="M1375 3073 c-225 -27 -481 -118 -666 -238 -305 -197 -557 -532 -644
-855 -1 -3 -7 -23 -13 -46 -36 -123 -47 -230 -46 -419 2 -143 8 -202 38 -346
15 -68 72 -221 116 -308 80 -161 163 -275 295 -407 232 -232 497 -372 818
-430 132 -25 400 -25 532 0 631 115 1114 587 1246 1217 27 132 34 381 13 514
-57 363 -209 656 -470 905 -69 66 -243 200 -260 200 -3 0 -32 15 -64 34 -114
67 -340 146 -462 161 -29 4 -57 10 -62 13 -11 6 -324 10 -371 5z"/>
</g>
</svg>
